# xmcd CD database file
#
# Track frame offsets:
#	150
#	28045
#	53052
#	72820
#	99195
#	124270
#	151432
#	172722
#	195365
#	221232
#
# Disc length: 3323 seconds
#
# Revision: 2
# Processed by: cddbd v1.5.2PL0 Copyright (c) Steve Scherf et al.
# Submitted via: CDex 1.70beta2
#
DISCID=7e0cf90a
DTITLE=The Street Sliders - WRECKAGE
DYEAR=1995
DGENRE=Rock
TTITLE0=WAVE '95
TTITLE1=BABY BLUE
TTITLE2=WASTIN' TIME
TTITLE3=聖者のラプソディー
TTITLE4=どしゃ降り雨に洗われて
TTITLE5=D. D. DANCE
TTITLE6=FEEL SO SAD
TTITLE7=日暮し
TTITLE8=WHERE DO I GO
TTITLE9=陽炎の道
EXTD=YEAR: 1995
EXTT0=
EXTT1=
EXTT2=
EXTT3=
EXTT4=
EXTT5=
EXTT6=
EXTT7=
EXTT8=
EXTT9=
PLAYORDER=
